<svg width="830" height="220" viewBox="0 0 830 220" fill="none" xmlns="http://www.w3.org/2000/svg">
<rect width="830" height="220" fill="#00758F"/>
<g clip-path="url(#clip0_331_26)">
<path d="M264.916 85.1128C264.46 85.1128 264.156 85.1741 263.85 85.2501V85.2968H263.896C264.11 85.6913 264.46 85.9981 264.732 86.3633C264.945 86.7753 265.126 87.199 265.325 87.611L265.386 87.5496C265.752 87.2896 265.936 86.8805 265.936 86.2552C265.784 86.0711 265.752 85.8754 265.617 85.7059C265.465 85.4458 265.129 85.3114 264.916 85.1128ZM223.478 136.517H219.872C219.75 130.431 219.384 124.707 218.823 119.337H218.794L213.301 136.517H210.546L205.096 119.337H205.05C204.655 124.479 204.395 130.218 204.29 136.517H201.003C201.216 128.847 201.748 121.665 202.601 114.968H207.075L212.278 130.796H212.308L217.558 114.968H221.818C222.762 122.822 223.326 130.004 223.493 136.517H223.478ZM239.122 120.616C237.661 128.59 235.712 134.39 233.325 137.996C231.437 140.78 229.383 142.18 227.145 142.18C226.552 142.18 225.821 141.996 224.939 141.631V139.714C225.38 139.775 225.883 139.819 226.447 139.819C227.496 139.819 228.334 139.515 228.974 138.951C229.734 138.25 230.116 137.461 230.116 136.593C230.116 135.986 229.827 134.767 229.219 132.912L225.278 120.616H228.825L231.656 129.809C232.296 131.91 232.571 133.356 232.448 134.191C234.014 130.051 235.095 125.516 235.706 120.616H239.122ZM287.149 136.517H276.893V114.968H280.346V133.87H287.149V136.517ZM274.213 137.037L270.257 135.089C270.608 134.799 270.941 134.481 271.248 134.116C272.937 132.152 273.775 129.216 273.775 125.35C273.775 118.212 270.976 114.653 265.375 114.653C262.634 114.653 260.489 115.55 258.952 117.361C257.278 119.34 256.425 122.261 256.425 126.113C256.425 129.902 257.17 132.672 258.663 134.452C260.034 136.035 262.088 136.842 264.843 136.842C265.863 136.842 266.806 136.719 267.66 136.462L272.82 139.474L274.234 137.04L274.213 137.037ZM261.386 132.196C260.504 130.796 260.077 128.544 260.077 125.438C260.077 120.006 261.722 117.297 265.024 117.297C266.745 117.297 268.022 117.952 268.828 119.246C269.696 120.66 270.137 122.884 270.137 125.958C270.137 131.422 268.478 134.177 265.191 134.177C263.455 134.177 262.193 133.522 261.372 132.228L261.386 132.196ZM254.932 130.554C254.932 132.38 254.263 133.888 252.907 135.042C251.569 136.213 249.787 136.807 247.519 136.807C245.404 136.807 243.379 136.137 241.386 134.796L242.315 132.941C244.019 133.794 245.556 134.221 246.958 134.221C248.253 134.221 249.272 133.931 250.003 133.368C250.733 132.789 251.174 131.983 251.174 130.963C251.174 129.683 250.277 128.587 248.647 127.676C247.139 126.84 244.112 125.119 244.112 125.119C242.467 123.918 241.661 122.638 241.661 120.523C241.661 118.773 242.269 117.373 243.487 116.307C244.72 115.211 246.286 114.679 248.235 114.679C250.228 114.679 252.054 115.211 253.699 116.277L252.863 118.133C251.464 117.54 250.079 117.236 248.723 117.236C247.613 117.236 246.759 117.511 246.166 118.042C245.573 118.574 245.208 119.243 245.208 120.082C245.208 121.362 246.123 122.457 247.794 123.398C249.331 124.234 252.419 126.001 252.419 126.001C254.108 127.188 254.947 128.468 254.947 130.551L254.932 130.554ZM291.473 107.743C289.387 107.696 287.774 107.909 286.421 108.488C286.041 108.64 285.416 108.64 285.355 109.128C285.568 109.341 285.597 109.677 285.781 109.963C286.1 110.48 286.634 111.182 287.137 111.547C287.686 111.974 288.233 112.4 288.796 112.765C289.816 113.391 290.959 113.756 291.961 114.378C292.525 114.743 293.103 115.214 293.664 115.597C293.954 115.795 294.135 116.146 294.5 116.266V116.19C294.316 115.962 294.272 115.626 294.088 115.354C293.828 115.094 293.571 114.866 293.311 114.609C292.551 113.589 291.622 112.707 290.602 111.976C289.767 111.413 287.94 110.621 287.604 109.662L287.558 109.601C288.122 109.554 288.791 109.341 289.337 109.189C290.219 108.961 291.04 109.005 291.955 108.777C292.367 108.672 292.776 108.549 293.203 108.412V108.184C292.732 107.713 292.382 107.074 291.894 106.632C290.57 105.49 289.109 104.365 287.601 103.436C286.78 102.904 285.746 102.568 284.878 102.127C284.574 101.975 284.043 101.899 283.873 101.639C283.403 101.06 283.128 100.315 282.792 99.6286C282.047 98.1969 281.316 96.6162 280.662 95.0939C280.192 94.0741 279.917 93.069 279.338 92.1253C276.659 87.6957 273.737 85.0193 269.264 82.3866C268.305 81.8373 267.148 81.6094 265.93 81.3202C265.275 81.2909 264.636 81.2442 263.981 81.215C263.554 81.0309 263.145 80.5459 262.78 80.3004C261.29 79.3567 257.454 77.3318 256.372 80.0112C255.671 81.7146 257.407 83.3742 258.017 84.2274C258.459 84.8352 259.023 85.5072 259.341 86.1763C259.525 86.6321 259.569 87.1055 259.753 87.5759C260.165 88.7184 260.559 89.9952 261.109 91.0617C261.398 91.611 261.702 92.1866 262.067 92.6746C262.28 92.9638 262.646 93.0866 262.722 93.557C262.356 94.0888 262.327 94.866 262.129 95.5059C261.185 98.457 261.55 102.095 262.874 104.271C263.3 104.926 264.288 106.358 265.614 105.808C266.786 105.338 266.529 103.86 266.862 102.551C266.938 102.232 266.891 102.033 267.046 101.82V101.881C267.426 102.612 267.791 103.313 268.127 104.044C268.919 105.323 270.333 106.647 271.505 107.529C272.13 108 272.615 108.809 273.392 109.096V109.02H273.331C273.164 108.792 272.951 108.684 272.738 108.502C272.267 108.032 271.747 107.453 271.368 106.936C270.286 105.475 269.313 103.862 268.46 102.203C268.034 101.382 267.668 100.499 267.335 99.6929C267.183 99.389 267.183 98.9157 266.923 98.7638C266.529 99.3277 265.95 99.8127 265.676 100.529C265.173 101.639 265.126 103.024 264.931 104.456C264.84 104.485 264.884 104.456 264.84 104.517C264.004 104.304 263.715 103.45 263.408 102.72C262.616 100.865 262.494 97.896 263.166 95.7659C263.35 95.2166 264.124 93.4985 263.82 92.9814C263.654 92.4788 263.137 92.1895 262.862 91.7951C262.511 91.3071 262.161 90.6848 261.918 90.1355C261.293 88.6745 260.989 87.0616 260.305 85.6007C260.001 84.9316 259.452 84.2304 259.011 83.608C258.508 82.9067 257.962 82.4071 257.579 81.5831C257.442 81.2939 257.261 80.8234 257.474 80.5166C257.521 80.3034 257.626 80.2274 257.839 80.166C258.175 79.8768 259.148 80.242 259.484 80.4085C260.443 80.7884 261.249 81.1536 262.055 81.7029C262.421 81.963 262.815 82.448 263.289 82.5853H263.838C264.673 82.7694 265.603 82.6321 266.38 82.8746C267.765 83.3158 269.012 83.9557 270.137 84.654C273.547 86.8308 276.346 89.9046 278.249 93.5716C278.567 94.1647 278.704 94.714 278.994 95.3364C279.525 96.6308 280.212 97.9223 280.758 99.1553C281.305 100.388 281.825 101.636 282.614 102.656C283.008 103.205 284.563 103.491 285.276 103.766C285.793 104.009 286.599 104.222 287.055 104.496C287.952 105.046 288.834 105.668 289.673 106.276C290.1 106.565 291.394 107.22 291.47 107.737L291.473 107.743Z" fill="white"/>
</g>
<path d="M408.972 156.44C400.22 155.809 391.57 153.606 386.265 150.657C383.243 148.977 380.941 146.913 380.037 145.073L379.5 143.978V109.64V75.3011L379.925 74.4375C381.826 70.5787 387.892 67.0999 396.36 65.0126C399.234 64.304 403.383 63.5983 406.769 63.2425C410.226 62.8791 419.388 62.9343 422.836 63.34C432.001 64.4167 439.799 66.8272 444.605 70.0688C446.459 71.3189 448.36 73.3192 449.005 74.696L449.557 75.8765L449.51 110.111L449.462 144.346L449.019 145.247C448.775 145.742 448.039 146.717 447.382 147.413C443.386 151.649 434.814 154.783 423.571 156.118C421.279 156.39 411.323 156.61 408.972 156.44ZM425.101 127.017C425.067 126.929 423.759 125.763 422.194 124.426C420.628 123.089 419.28 121.933 419.197 121.856C419.115 121.779 419.404 121.507 419.84 121.252C420.276 120.996 421.111 120.285 421.696 119.672C423.406 117.879 424.213 115.663 424.213 112.761C424.213 109.904 423.343 107.599 421.6 105.84C419.843 104.066 417.826 103.304 414.888 103.304C410.36 103.304 406.882 105.947 405.772 110.23C405.391 111.704 405.393 114.681 405.776 115.987C406.777 119.395 409.504 121.87 412.897 122.451C414.045 122.648 414.2 122.733 414.983 123.589C415.448 124.097 416.403 125.113 417.104 125.845L418.38 127.176H421.771C423.636 127.176 425.135 127.104 425.101 127.017ZM413.472 117.522C412.655 117.096 412.347 116.766 411.881 115.819C411.521 115.088 411.46 114.673 411.456 112.945C411.452 111.189 411.508 110.81 411.883 110.048C412.497 108.8 413.344 108.21 414.653 108.115C416.476 107.983 417.528 108.877 418.079 111.027C418.755 113.663 418.012 116.465 416.39 117.395C415.539 117.883 414.27 117.938 413.472 117.522ZM398.441 122.414C401.996 121.74 404.014 119.672 404.014 116.704C404.014 114.071 402.711 112.536 399.11 110.929C397.049 110.009 396.302 109.431 396.302 108.756C396.302 108.197 397.011 107.584 397.835 107.43C398.641 107.279 400.777 107.65 402.039 108.16L403.096 108.587V106.246V103.905L401.949 103.651C401.239 103.493 399.749 103.399 398.046 103.404C395.635 103.404 395.163 103.463 394.255 103.823C391.605 104.875 390.347 106.668 390.367 109.364C390.386 111.888 391.718 113.463 395.032 114.879C396.987 115.715 397.771 116.352 397.771 117.104C397.771 118.702 395.108 118.899 392.289 117.509C391.517 117.128 390.823 116.786 390.747 116.748C390.671 116.71 390.61 117.803 390.61 119.177C390.61 121.665 390.612 121.677 391.063 121.849C392.759 122.493 396.507 122.781 398.441 122.414ZM439.087 120.106V117.995H435.874H432.66V110.741V103.488H429.814H426.968V112.853V122.218H433.028H439.087V120.106ZM419.255 83.1005C424.911 82.7082 429.151 81.9676 432.882 80.7202C436.599 79.4774 438.794 77.9737 439.286 76.3345C439.475 75.7029 439.461 75.4633 439.197 74.7707C438.011 71.6659 431.387 69.2804 421.265 68.3132C416.935 67.8994 409.061 68.0335 404.933 68.5912C398.633 69.4423 393.521 71.0232 391.248 72.8231C386.65 76.4642 391.513 80.469 402.821 82.3539C407.724 83.1713 414.076 83.4599 419.255 83.1005Z" fill="white"/>
<path d="M620.232 119.922C609.699 122.095 608.975 118.529 608.975 118.529C620.096 102.027 624.745 81.0809 620.733 75.9543C609.788 61.9701 590.842 68.5838 590.526 68.7552L590.424 68.7736C588.343 68.3415 586.014 68.0844 583.397 68.0415C578.631 67.9636 575.016 69.291 572.272 71.3714C572.272 71.3714 538.474 57.4477 540.046 88.8828C540.381 95.5702 549.631 139.484 560.665 126.22C564.698 121.369 568.595 117.269 568.595 117.269C570.53 118.554 572.847 119.21 575.276 118.975L575.465 118.815C575.406 119.417 575.433 120.006 575.54 120.703C572.698 123.879 573.533 124.436 567.851 125.606C562.101 126.791 565.479 128.9 567.684 129.452C570.358 130.121 576.543 131.068 580.722 125.217L580.555 125.885C581.669 126.777 582.451 131.687 582.32 136.139C582.189 140.59 582.101 143.646 582.979 146.033C583.857 148.42 584.731 153.791 592.201 152.19C598.443 150.853 601.677 147.387 602.127 141.604C602.447 137.494 603.169 138.102 603.215 134.427L603.794 132.687C604.463 127.115 603.901 125.317 607.746 126.153L608.681 126.235C611.511 126.364 615.215 125.78 617.39 124.769C622.071 122.597 624.848 118.969 620.231 119.922H620.232Z" fill="white"/>
<path d="M574.251 91.8734C573.301 91.7413 572.442 91.8635 572.007 92.1929C571.763 92.3781 571.687 92.5927 571.666 92.7404C571.612 93.1318 571.886 93.5646 572.054 93.7877C572.531 94.4195 573.227 94.8537 573.917 94.9493C574.016 94.9635 574.116 94.9699 574.215 94.9699C575.364 94.9699 576.409 94.0749 576.501 93.4144C576.616 92.5871 575.415 92.0353 574.251 91.8734ZM605.695 91.8996C605.604 91.2511 604.45 91.0663 603.355 91.2186C602.262 91.3708 601.201 91.8646 601.29 92.5144C601.361 93.0198 602.273 93.8826 603.354 93.8826C603.445 93.8826 603.537 93.8766 603.63 93.8635C604.351 93.7636 604.88 93.3057 605.131 93.0418C605.514 92.6395 605.736 92.1911 605.695 91.8996Z" fill="#336791"/>
<path d="M623.737 119.675C623.335 118.461 622.043 118.07 619.895 118.514C613.518 119.83 611.234 118.918 610.485 118.366C615.441 110.815 619.519 101.688 621.718 93.1718C622.76 89.1378 623.336 85.3914 623.383 82.3378C623.435 78.9863 622.864 76.5234 621.687 75.0189C616.94 68.9538 609.974 65.7005 601.541 65.6112C595.744 65.546 590.846 67.0296 589.896 67.4469C587.897 66.9496 585.717 66.6443 583.343 66.6054C578.991 66.5349 575.23 67.5768 572.115 69.7008C570.762 69.1971 567.266 67.9969 562.99 67.308C555.598 66.118 549.723 67.0197 545.532 69.9894C540.53 73.5332 538.221 79.8678 538.668 88.8169C538.818 91.8277 540.534 101.09 543.241 109.96C546.805 121.635 550.679 128.244 554.754 129.603C555.231 129.762 555.782 129.874 556.388 129.874C557.875 129.874 559.698 129.204 561.594 126.923C563.908 124.148 566.301 121.441 568.77 118.804C570.372 119.664 572.133 120.144 573.933 120.192C573.936 120.239 573.941 120.286 573.945 120.333C573.635 120.703 573.332 121.078 573.035 121.458C571.788 123.041 571.528 123.371 567.513 124.197C566.371 124.433 563.337 125.058 563.293 127.185C563.245 129.508 566.879 130.484 567.293 130.587C568.736 130.949 570.126 131.127 571.451 131.127C574.675 131.127 577.512 130.067 579.78 128.017C579.71 136.299 580.055 144.461 581.05 146.947C581.864 148.983 583.854 153.958 590.139 153.958C591.061 153.958 592.077 153.85 593.193 153.611C599.753 152.205 602.601 149.306 603.703 142.914C604.293 139.498 605.305 131.341 605.781 126.966C606.785 127.279 608.078 127.423 609.476 127.423C612.392 127.423 615.756 126.803 617.866 125.824C620.236 124.723 624.513 122.022 623.737 119.675ZM608.116 90.1096C608.094 91.4013 607.917 92.5739 607.728 93.7979C607.525 95.1144 607.316 96.4754 607.263 98.1276C607.211 99.7355 607.412 101.407 607.606 103.024C607.998 106.289 608.401 109.651 606.842 112.968C606.583 112.509 606.353 112.035 606.151 111.548C605.958 111.079 605.537 110.324 604.954 109.28C602.688 105.216 597.381 95.698 600.098 91.8142C600.907 90.6582 602.961 89.4696 608.116 90.1096ZM601.867 68.2267C609.423 68.3935 615.4 71.2202 619.631 76.6276C622.877 80.7752 619.303 99.6477 608.957 115.929C608.853 115.797 608.748 115.665 608.643 115.533L608.512 115.37C611.186 110.954 610.663 106.586 610.197 102.713C610.006 101.123 609.826 99.6218 609.872 98.2115C609.919 96.717 610.117 95.4349 610.308 94.1953C610.543 92.6678 610.782 91.0871 610.716 89.2239C610.765 89.0284 610.785 88.7974 610.759 88.5233C610.591 86.7365 608.551 81.389 604.393 76.5489C602.119 73.9015 598.802 70.9389 594.273 68.9407C596.221 68.537 598.885 68.1605 601.867 68.2267ZM559.587 125.255C557.498 127.767 556.055 127.285 555.58 127.127C552.488 126.096 548.901 119.561 545.738 109.198C543.001 100.231 541.401 91.2146 541.274 88.6862C540.875 80.6899 542.813 75.117 547.036 72.1222C553.908 67.2489 565.207 70.1658 569.747 71.6451C569.682 71.7096 569.614 71.7698 569.549 71.8353C562.099 79.3593 562.276 92.2141 562.294 93C562.294 93.3031 562.319 93.7324 562.354 94.3228C562.482 96.485 562.721 100.509 562.083 105.066C561.491 109.301 562.796 113.446 565.664 116.438C565.958 116.745 566.268 117.036 566.591 117.312C565.315 118.679 562.54 121.702 559.587 125.255ZM567.549 114.632C565.237 112.22 564.188 108.866 564.668 105.427C565.341 100.614 565.093 96.4209 564.959 94.1684C564.941 93.8532 564.924 93.5769 564.914 93.3591C566.003 92.394 571.046 89.6917 574.643 90.5159C576.285 90.8916 577.285 92.0094 577.701 93.9318C579.852 103.885 577.985 108.033 576.485 111.367C576.176 112.054 575.884 112.703 575.634 113.374L575.441 113.894C574.951 115.206 574.496 116.427 574.214 117.586C571.757 117.578 569.366 116.529 567.549 114.632V114.632ZM567.926 128.055C567.208 127.876 566.563 127.565 566.184 127.306C566.501 127.158 567.063 126.955 568.04 126.754C572.763 125.782 573.493 125.095 575.086 123.073C575.451 122.609 575.865 122.083 576.438 121.443L576.439 121.442C577.293 120.486 577.684 120.648 578.392 120.942C578.966 121.179 579.525 121.899 579.752 122.691C579.859 123.065 579.98 123.775 579.585 124.327C576.258 128.986 571.408 128.927 567.926 128.055ZM592.646 151.059C586.868 152.297 584.822 149.349 583.473 145.978C582.603 143.802 582.175 133.989 582.479 123.153C582.483 123.009 582.462 122.87 582.423 122.739C582.387 122.48 582.333 122.224 582.261 121.973C581.81 120.396 580.71 119.077 579.391 118.53C578.867 118.313 577.905 117.915 576.749 118.211C576.995 117.195 577.423 116.048 577.886 114.806L578.081 114.283C578.3 113.694 578.575 113.084 578.865 112.438C580.435 108.95 582.585 104.173 580.252 93.3804C579.378 89.3379 576.458 87.3638 572.034 87.8224C569.381 88.0969 566.954 89.1672 565.743 89.781C565.483 89.9127 565.245 90.0402 565.022 90.1642C565.36 86.0913 566.637 78.4795 571.412 73.6635C574.418 70.6319 578.422 69.1345 583.3 69.2152C592.912 69.3725 599.076 74.3053 602.555 78.4161C605.553 81.9581 607.176 85.5264 607.823 87.4509C602.952 86.9554 599.639 87.917 597.959 90.3182C594.305 95.5415 599.958 105.679 602.675 110.551C603.173 111.444 603.603 112.216 603.739 112.544C604.623 114.688 605.769 116.12 606.605 117.164C606.861 117.485 607.11 117.795 607.299 118.066C605.823 118.492 603.173 119.475 603.415 124.387C603.22 126.852 601.835 138.393 601.131 142.471C600.202 147.858 598.22 149.864 592.646 151.059V151.059ZM616.767 123.457C615.258 124.157 612.733 124.682 610.335 124.795C607.685 124.919 606.337 124.498 606.019 124.239C605.871 121.178 607.01 120.858 608.216 120.519C608.405 120.466 608.59 120.414 608.769 120.352C608.88 120.442 609.001 120.532 609.134 120.62C611.263 122.025 615.061 122.177 620.423 121.07L620.482 121.058C619.759 121.734 618.521 122.642 616.767 123.457Z" fill="#336791"/>
<defs>
<clipPath id="clip0_331_26">
<rect width="93.5" height="93.5" fill="white" transform="translate(201 63)"/>
</clipPath>
</defs>
</svg>
